PathFileType	4	(X/Y/Z)	pose_F01_0-95.trc
DataRate	CameraRate	NumFrames	NumMarkers	Units	OrigDataRate	OrigDataStartFrame	OrigNumFrames
30	30	14	21	m	30	0	95
Frame#	Time	CHip			RHip			RKnee			RAnkle			RBigToe			RSmallToe			RHeel			LHip			LKnee			LAnkle			LBigToe			LSmallToe			LHeel			Neck			Nose			RShoulder			RElbow			RWrist			LShoulder			LElbow			LWrist			
		X1	Y1	Z1	X2	Y2	Z2	X3	Y3	Z3	X4	Y4	Z4	X5	Y5	Z5	X6	Y6	Z6	X7	Y7	Z7	X8	Y8	Z8	X9	Y9	Z9	X10	Y10	Z10	X11	Y11	Z11	X12	Y12	Z12	X13	Y13	Z13	X14	Y14	Z14	X15	Y15	Z15	X16	Y16	Z16	X17	Y17	Z17	X18	Y18	Z18	X19	Y19	Z19	X20	Y20	Z20	X21	Y21	Z21	
0	0.0	-0.2546889336975255	1.882048152320432	-0.5692972045570702	-0.27282432399169204	1.8770423140789596	-0.5022637848507383																-0.2383022379679754	1.8840191486737476	-0.6367942986842037	-0.23031332464960652	1.7267022692929777	-0.6311023442084503													-0.2614753416300505	2.0556645647762024	-0.5947518885386196	-0.24687588738801083	2.1231843693387473	-0.5567180326154628	-0.28638656613302643	2.0536878131290344	-0.510291180934616	-0.2904261059789494	1.9618342142701128	-0.47542167196365126	-0.2882333206714728	1.881821124106571	-0.42809691786474624	-0.230851763258357	2.0597722564334005	-0.6877229832484216	-0.22990396156819293	1.9659689427002434	-0.7141855381992489	-0.2167609961845546	1.8772376182188923	-0.7035204363326883
1	0.03333333333333333	-0.25443121361102816	1.8788454869452944	-0.5689597734809794	-0.2723909369057442	1.8752412486790833	-0.501995674295521																-0.2381796364438025	1.8819735239567081	-0.6366982787071127	-0.23031332464960652	1.7267022692929777	-0.6311023442084503													-0.26049268892190774	2.0554323547577074	-0.5916805676481128	-0.2468770573034402	2.123224516246929	-0.5567132005714461	-0.2843106015387773	2.052139423732952	-0.5036485627789119	-0.28929673507618253	1.9604713302429297	-0.47183078833440595	-0.2881733825899149	1.8802449728531834	-0.42753971225145904	-0.23076562078020363	2.0597785399339714	-0.6875991730852439	-0.22832206619345588	1.967246317597794	-0.7083636452790404	-0.21705546887323338	1.882027986350134	-0.7037193748006555
2	0.06666666666666667	-0.25417349352453084	1.8756428215701568	-0.5686223424048885	-0.2719575498197963	1.873440183279207	-0.5017275637403038																-0.2380570349196296	1.8799278992396686	-0.6366022587300217	-0.23031332464960652	1.7267022692929777	-0.6311023442084503													-0.259510036213765	2.0552001447392123	-0.5886092467576061	-0.24687822721886957	2.123264663155111	-0.5567083685274294	-0.28223463694452816	2.05059103433687	-0.4970059446232078	-0.28816736417341565	1.9591084462157466	-0.46823990470516064	-0.28811344450835696	1.8786688215997958	-0.42698250663817183	-0.23067947830205027	2.0597848234345424	-0.6874753629220661	-0.22674017081871883	1.9685236924953444	-0.7025417523588319	-0.21734994156191215	1.8868183544813755	-0.7039183132686226
3	0.1	-0.25410395762517374	1.8790041281945322	-0.5690209412775598	-0.2699832289044252	1.8767789418885912	-0.5042117331049171																-0.23995963587566602	1.8817717891424828	-0.6346204082316611	-0.23031332464960652	1.7267022692929777	-0.6311023442084503													-0.2595379785872792	2.055223538391525	-0.5886772208420489	-0.24687336180801367	2.123223781546978	-0.5566775640816866	-0.28325359241862724	2.0506754035548385	-0.5001246411375345	-0.2881854189943401	1.9591139315017603	-0.46837345658457574	-0.28838811487535143	1.8778778507973781	-0.42693723349069335	-0.2307234419458706	2.05970596079812	-0.6874775736081292	-0.22753786573566204	1.9671025163856672	-0.7052379553003301	-0.21625492693710002	1.8834605432666154	-0.7005851351526229
4	0.13333333333333333	-0.25412982225759706	1.8787977227616088	-0.5690049655940653	-0.2719072867840744	1.8763735271303363	-0.5021929393772187																-0.23791925419276425	1.8816077801579933	-0.6367049841479213	-0.23031332464960652	1.7267022692929777	-0.6311023442084503													-0.25955910643030994	2.0552729311088083	-0.5886276030419378	-0.24689214446395885	2.123257331339078	-0.5566842880109756	-0.28326736730656454	2.0507451151923948	-0.5000698319382001	-0.28817949751191174	1.9592686001239172	-0.46831287534986005	-0.2889934193087691	1.881292373135119	-0.4305726474025487	-0.23074639638057162	2.0597480826345698	-0.6874303316169816	-0.22954896725205393	1.9685187027870747	-0.7030069952903734	-0.21604208532970118	1.8852265028659225	-0.7006691698851638
5	0.16666666666666666	-0.25427605441516477	1.8773289505294946	-0.5687174112158855	-0.27223118451730044	1.8738861215364346	-0.5017186836334478																-0.2370156746180723	1.8820954035489377	-0.6336122991057307	-0.23031332464960652	1.7267022692929777	-0.6311023442084503													-0.26047460806712525	2.0553931746114387	-0.591586455058803	-0.24685830679557086	2.123184457278173	-0.5566907605076883	-0.2833699026225088	2.0495687642002274	-0.5001798667113495	-0.28822361808790997	1.9606395647223172	-0.4685719945141567	-0.2883919087474912	1.87800135183512	-0.4270430757206047	-0.23077702377549253	2.0596352035149232	-0.6875012672914759	-0.22955612965420247	1.9699895656150435	-0.7033539637672895	-0.21624514123478092	1.8878637625924273	-0.701058339506
6	0.2	-0.2541963029612765	1.8801760414748736	-0.5691637153286694	-0.271973637654854	1.8779456640821974	-0.5023098988453322																-0.23800786217034312	1.883417222817612	-0.6368673985844311	-0.23031332464960652	1.7267022692929777	-0.6311023442084503													-0.25952237780635995	2.055209355838427	-0.58857805954739	-0.24688221678269945	2.123224228912756	-0.5566830200302552	-0.28224656446929197	2.050615522863171	-0.4970250236320609	-0.2890713278857437	1.9586540708686553	-0.46313649849407706	-0.2883944205729731	1.878000753886242	-0.4270127094557778	-0.22985567843682142	2.059600661561245	-0.6845357328195923	-0.2265724672578013	1.969788448176064	-0.7024895740674726	-0.21618099777028973	1.8874811929517306	-0.7008670094652415
7	0.23333333333333334	-0.2540663659098081	1.878942932866069	-0.5690340626711448	-0.26995952231317855	1.8767831640607313	-0.504178960365243																-0.23788185110491245	1.8812507681345054	-0.636814822328866	-0.23031332464960652	1.7267022692929777	-0.6311023442084503													-0.2595402731630647	2.055230394085571	-0.5885889409779664	-0.24688683623162225	2.1231505466690304	-0.5567083559877068	-0.2822713116542293	2.050612058067191	-0.4970376060845683	-0.2891678048758705	1.959697768730537	-0.46346731057778284	-0.288348100883674	1.8777538801796314	-0.4269263190678046	-0.2298768265637929	2.059621328744652	-0.684571553950881	-0.2287779643762709	1.9672966405194707	-0.7000872216280484	-0.21494548305542666	1.8831386626737359	-0.705864279403644
8	0.26666666666666666	-0.25389295851756705	1.8805115461019342	-0.5691512335505139	-0.2697890113167357	1.8784418880594844	-0.5043207098766151																-0.2377299719058675	1.8834515245232086	-0.6368578853610601	-0.23031332464960652	1.7267022692929777	-0.6311023442084503													-0.2595664658738652	2.0553095323628696	-0.5885428373718532	-0.2449640570363685	2.1232124383166227	-0.5586809625889669	-0.2823098359914027	2.0505736948666047	-0.4969444068463757	-0.2900275829816876	1.9592742821675209	-0.4661601784455595	-0.28825390372069376	1.8770563170445436	-0.426708711124959	-0.2307510452067505	2.0597235660454105	-0.6874252202811136	-0.22953116118865796	1.9685489107916172	-0.7030071760680926	-0.21705527993399337	1.8850584255959755	-0.7039179364964531
9	0.3	-0.25325332151392405	1.8808854538813693	-0.5660328429608125	-0.2689822579653522	1.8773991473654386	-0.5010278793707122																-0.2390086096587398	1.8854839220631798	-0.6317425992075285	-0.23031332464960652	1.7267022692929777	-0.6311023442084503													-0.25954465113292763	2.0552117878056895	-0.5886692613307941	-0.24688325656994267	2.1231554400544272	-0.5566778499158166	-0.2832733646921792	2.0507219226805473	-0.5000962626866385	-0.28817367129552596	1.9589481671040316	-0.46830460153367437	-0.28823326681982614	1.8764600696482634	-0.4266511593868644	-0.23071854466550185	2.0596664566705942	-0.6875053480262432	-0.22656031945407287	1.9694344565876232	-0.7025923534365044	-0.21640840177250112	1.8856249411866568	-0.7009504178322324
10	0.3333333333333333	-0.2540422700933736	1.8793330241136939	-0.568997981719069	-0.26993500683585736	1.8768484002230013	-0.5041904817149382																-0.23788393908042726	1.8819289970048314	-0.6367261285998981	-0.23031332464960652	1.7267022692929777	-0.6311023442084503													-0.2595415877836156	2.0552302345840334	-0.5886309052765638	-0.2449548567691377	2.1232334166287155	-0.5586794985954352	-0.2832533470902794	2.050723210052469	-0.5000269317476161	-0.28722148364891914	1.9580861446239066	-0.4652490229348481	-0.2882393658679554	1.8760164665231267	-0.4267039125224786	-0.2307118925437397	2.05974114672282	-0.6874503245445993	-0.22666363344067716	1.9668698168269085	-0.7022647218849916	-0.21642191757592785	1.8825320424166954	-0.7004461731268834
11	0.36666666666666664	-0.25388736486203006	1.8799400461208067	-0.5690865831660208	-0.2699470569147502	1.8767888796628673	-0.5041415717072686																-0.23683373496789173	1.882891439286345	-0.6337989796122864	-0.23031332464960652	1.7267022692929777	-0.6311023442084503													-0.2595462433406558	2.0552632977087013	-0.5886968073888632	-0.24687269147614316	2.123143996912659	-0.5566867953286366	-0.28326312820614236	2.0507553222549464	-0.5001598626421121	-0.2881857235981621	1.9587470682014732	-0.4683094204534194	-0.28697065773720765	1.8752081255959552	-0.4233939473053551	-0.2307009423190784	2.0597801464344916	-0.6874826925756387	-0.22664467609500816	1.9671306758940768	-0.7022522720603129	-0.21617445081442876	1.883145282026768	-0.7005624922901557
12	0.4	-0.2539583560464164	1.8776275439941497	-0.5688123503214076	-0.2699993141202165	1.8743130083633575	-0.5037999182687075																-0.23778952174983606	1.880727611294512	-0.6365875711538966	-0.23031332464960652	1.7267022692929777	-0.6311023442084503													-0.25953550641442863	2.0552614851721125	-0.5885836781237831	-0.24496181547970683	2.1232856197032866	-0.5586947902591232	-0.2822577852502112	2.050605114331501	-0.49702976804131155	-0.2871255763327276	1.958933640570024	-0.46526574499757306	-0.2882645415707524	1.8758951096929375	-0.4266943008049559	-0.23071550251934925	2.059846219568732	-0.6874518786831599	-0.22676844934254614	1.9680685236920086	-0.7025176744803352	-0.21507243269826204	1.8818761696760613	-0.7057221420404174
13	0.43333333333333335	-0.2521588296635893	1.88076235205354	-0.5712954118054812	-0.2701799715948688	1.877328368149581	-0.5042216598545256																-0.23791472540693126	1.8830012874956905	-0.6369831750040974	-0.23031332464960652	1.7267022692929777	-0.6311023442084503													-0.2595204225498477	2.0551971270177933	-0.5886242774697525	-0.244952478659239	2.123199139269218	-0.5587178126927594	-0.28224221514151193	2.0505641372793773	-0.4970508343615829	-0.2881323291791617	1.9587306938983517	-0.46835360175199736	-0.28823950086869865	1.8765293135267815	-0.42680386048271857	-0.23069874796214412	2.059790770939613	-0.6875150098549605	-0.22657993493194903	1.9696514042252171	-0.7025815229992971	-0.21500092457415323	1.8876009974824017	-0.7062502418586966
